<?xml version="1.0" standalone="no"?>
<!DOCTYPE svg PUBLIC "-//W3C//DTD SVG 20010904//EN"
 "http://www.w3.org/TR/2001/REC-SVG-20010904/DTD/svg10.dtd">
<svg version="1.0" xmlns="http://www.w3.org/2000/svg"
 width="230.000000pt" height="136.000000pt" viewBox="0 0 230.000000 136.000000"
 preserveAspectRatio="xMidYMid meet">
<metadata>
Created by potrace 1.10, written by Peter Selinger 2001-2011
</metadata>
<g transform="translate(0.000000,136.000000) scale(0.050000,-0.050000)"
fill="#7510f7" stroke="none">
<path d="M460 2500 l0 -60 610 0 610 0 0 60 0 60 -610 0 -610 0 0 -60z"/>
<path d="M1757 2550 c-6 -5 -6 -36 -2 -67 8 -54 58 -82 788 -443 l779 -386 -6
-62 c-3 -34 -13 -60 -21 -57 -8 3 -350 172 -760 375 -830 412 -776 390 -773
315 1 -52 43 -76 780 -445 723 -362 778 -393 778 -442 0 -61 -18 -84 -48 -61
-12 10 -211 114 -442 233 -231 118 -566 291 -745 384 l-325 168 1 -76 1 -76
780 -387 c729 -361 780 -390 774 -436 -8 -66 39 -86 -786 330 -407 205 -747
376 -756 380 -9 4 -14 -26 -10 -66 l6 -74 770 -391 c663 -336 771 -397 776
-438 10 -72 20 -76 -796 332 l-760 380 0 -69 c0 -82 -39 -57 450 -293 1204
-580 1110 -530 1110 -597 0 -87 25 -97 -800 318 -412 208 -752 375 -754 373
-3 -2 -6 -265 -7 -583 l-1 -579 1351 0 1352 0 0 1218 c0 669 -3 1220 -7 1225
-4 4 -75 -31 -158 -78 -83 -47 -385 -201 -671 -344 l-520 -258 -308 156 c-630
321 -968 497 -986 514 -21 19 -40 22 -54 7z m2491 -293 c-10 -16 -4 -20 19
-11 30 12 33 -63 33 -985 l0 -998 -57 -12 c-89 -20 -1383 -5 -1383 16 0 10
-11 8 -26 -3 -20 -17 -586 -18 -724 -1 -11 1 -29 0 -40 -3 -48 -12 -92 1 -78
23 10 16 4 20 -17 12 -47 -18 -56 46 -54 386 2 275 5 301 36 288 18 -8 51 -16
73 -17 22 -1 74 -22 117 -47 42 -25 84 -40 95 -34 10 6 18 -3 18 -20 0 -17 7
-29 15 -26 8 2 56 -13 105 -34 50 -21 102 -40 117 -43 15 -3 40 -23 55 -45 17
-25 45 -38 69 -33 23 5 46 -5 52 -21 6 -16 19 -24 28 -19 9 6 22 1 29 -10 7
-11 20 -16 29 -11 9 6 28 -3 41 -19 14 -17 36 -30 50 -30 13 0 48 -18 76 -40
32 -26 53 -32 58 -17 5 15 19 11 40 -10 18 -18 47 -33 65 -33 17 0 48 -17 69
-38 21 -21 43 -34 49 -29 8 9 74 23 147 31 13 1 20 10 14 19 -5 8 8 33 30 55
39 39 49 422 13 480 -6 11 -3 25 8 32 20 12 13 175 -9 210 -6 9 -1 23 10 30
13 8 18 70 13 157 -4 78 0 162 8 186 10 27 6 57 -12 82 -15 22 -22 45 -15 52
7 7 2 13 -11 13 -33 0 -28 78 8 114 17 16 48 26 69 20 26 -7 43 3 51 28 6 21
22 38 34 38 39 0 295 125 295 144 0 10 8 13 18 7 11 -6 31 0 46 14 15 14 40
28 56 32 16 3 34 12 40 20 5 7 24 16 40 20 17 3 33 14 37 25 3 10 22 18 41 18
19 0 52 13 73 29 48 36 56 38 37 8z"/>
<path d="M468 2302 c-4 -5 -8 -34 -8 -65 l0 -57 610 0 610 0 0 65 0 65 -602 0
c-331 0 -605 -4 -610 -8z"/>
<path d="M460 1990 l0 -70 610 0 610 0 0 70 0 70 -610 0 -610 0 0 -70z"/>
<path d="M468 1782 c-4 -5 -8 -34 -8 -65 l0 -57 611 0 612 0 -7 60 -6 61 -597
4 c-328 3 -600 1 -605 -3z"/>
<path d="M467 1515 c-5 -8 -8 -143 -6 -300 l3 -285 -167 -3 -167 -2 0 -415 0
-415 545 4 c945 6 991 47 1001 911 l7 520 -603 0 c-332 0 -608 -7 -613 -15z
m769 -173 c5 -14 16 -13 33 4 28 28 191 22 191 -8 0 -10 10 -18 21 -18 12 0
16 9 9 20 -7 11 -3 20 9 20 37 0 28 -829 -9 -860 -16 -14 -30 -36 -30 -49 0
-13 -20 -41 -45 -62 -61 -53 -155 -112 -155 -99 0 6 -17 2 -37 -9 -60 -31
-243 -43 -243 -15 -1 18 -4 18 -15 1 -17 -26 -519 -27 -560 -1 -15 10 -26 6
-27 -10 -1 -20 -3 -20 -11 -1 -6 14 -19 20 -29 14 -10 -7 -18 90 -18 231 0
156 7 238 20 230 11 -7 20 -1 20 14 1 21 4 21 18 -1 13 -21 19 -20 29 5 6 18
24 32 39 32 14 0 47 27 71 61 25 33 54 55 65 48 10 -7 18 -5 16 5 -1 9 -1 39
2 66 l4 50 16 -50 c11 -33 17 17 18 146 2 232 14 251 150 246 52 -1 98 2 102
8 12 20 339 3 346 -18z"/>
</g>
</svg>
