<svg width="133.925px" height="96.8px" xmlns="http://www.w3.org/2000/svg" viewBox="183.0375 26.6 133.925 96.8" style="background: rgba(0, 0, 0, 0);" preserveAspectRatio="xMidYMid"><defs><filter id="editing-extrude-glow"><feFlood flood-color="#ffffff" result="flood-1"></feFlood><feMorphology operator="erode" radius="1" in="SourceAlpha" result="erode"></feMorphology><feComposite operator="in" in="flood-1" in2="erode" result="comp1"></feComposite><feConvolveMatrix order="0,0" divisor="1" in="comp1" result="convolve" kernelMatrix=""></feConvolveMatrix><feOffset dx="0" dy="0" in="convolve" result="extrude"></feOffset><feComposite operator="in" in="flood-1" in2="extrude" result="comp-extrude"></feComposite><feFlood flood-color="#ffffff" result="flood-2"></feFlood><feComposite operator="in" in="flood-2" in2="SourceAlpha" result="comp2"></feComposite><feMorphology operator="dilate" radius="1" in="comp2" result="dilate"></feMorphology><feOffset dx="0" dy="0" in="dilate" result="offset"></feOffset><feGaussianBlur in="offset" stdDeviation="5.8" result="blur"></feGaussianBlur><feComponentTransfer in="blur" result="shadow"><feFuncA type="linear" slope="0.8" intercept="-0.2"></feFuncA></feComponentTransfer><feMerge><feMergeNode in="shadow"></feMergeNode><feMergeNode in="comp-extrude"></feMergeNode><feMergeNode in="SourceGraphic"></feMergeNode></feMerge></filter></defs><g filter="url(#editing-extrude-glow)"><g transform="translate(209.0750014781952, 93.19999885559082)"><path d="M30.84-12.43L30.84-12.43Q30.84-5.72 27.01-2.55L27.01-2.55L27.01-2.55Q23.19 0.62 16.02 0.62L16.02 0.62L16.02 0.62Q8.84 0.62 5.02-2.55L5.02-2.55L5.02-2.55Q1.20-5.72 1.20-12.43L1.20-12.43L1.20-12.90L11.96-12.90L11.96-12.48L11.96-12.48Q11.96-10.04 12.87-9.00L12.87-9.00L12.87-9.00Q13.78-7.96 15.65-7.96L15.65-7.96L15.65-7.96Q17.52-7.96 18.43-9.00L18.43-9.00L18.43-9.00Q19.34-10.04 19.34-12.48L19.34-12.48L19.34-35.78L30.84-35.78L30.84-12.43ZM80.65 0L69.26 0L69.26-12.90L69.26-12.90Q69.26-15.29 69.45-17.81L69.45-17.81L69.45-17.81Q69.63-20.33 69.84-22.05L69.84-22.05L69.84-22.05Q70.04-23.76 70.10-24.23L70.10-24.23L69.89-24.23L63.28 0L54.29 0L47.63-24.18L47.42-24.18L47.42-24.18Q47.48-23.71 47.71-22.02L47.71-22.02L47.71-22.02Q47.94-20.33 48.15-17.81L48.15-17.81L48.15-17.81Q48.36-15.29 48.36-12.90L48.36-12.90L48.36 0L37.80 0L37.80-35.78L54.03-35.78L59.44-15.13L59.64-15.13L65-35.78L80.65-35.78L80.65 0Z" fill="#7510f7"></path></g></g><style>text {
  font-size: 64px;
  font-family: Arial Black;
  dominant-baseline: central;
  text-anchor: middle;
}</style></svg>