<?xml version="1.0" encoding="UTF-8"?>
<svg width="715.4375px" height="97.2503662109375px" xmlns="http://www.w3.org/2000/svg" viewBox="-107.71875 26.37481689453125 715.4375 97.2503662109375" style="background: rgba(0, 0, 0, 0);" preserveAspectRatio="xMidYMid"><defs><filter id="editing-extrude-glow"><feFlood flood-color="#ffffff" result="flood-1"></feFlood><feMorphology operator="erode" radius="1" in="SourceAlpha" result="erode"></feMorphology><feComposite operator="in" in="flood-1" in2="erode" result="comp1"></feComposite><feConvolveMatrix order="0,0" divisor="1" in="comp1" result="convolve" kernelMatrix=""></feConvolveMatrix><feOffset dx="0" dy="0" in="convolve" result="extrude"></feOffset><feComposite operator="in" in="flood-1" in2="extrude" result="comp-extrude"></feComposite><feFlood flood-color="#ffffff" result="flood-2"></feFlood><feComposite operator="in" in="flood-2" in2="SourceAlpha" result="comp2"></feComposite><feMorphology operator="dilate" radius="1" in="comp2" result="dilate"></feMorphology><feOffset dx="0" dy="0" in="dilate" result="offset"></feOffset><feGaussianBlur in="offset" stdDeviation="5.8" result="blur"></feGaussianBlur><feComponentTransfer in="blur" result="shadow"><feFuncA type="linear" slope="0.8" intercept="-0.2"></feFuncA></feComponentTransfer><feMerge><feMergeNode in="shadow"></feMergeNode><feMergeNode in="comp-extrude"></feMergeNode><feMergeNode in="SourceGraphic"></feMergeNode></feMerge></filter></defs><g filter="url(#editing-extrude-glow)"><g transform="translate(-4.570012331008911, 99.47557640075684)"><path d="M30.84-12.43L30.84-12.43Q30.84-5.72 27.01-2.55L27.01-2.55L27.01-2.55Q23.19 0.62 16.02 0.62L16.02 0.62L16.02 0.62Q8.84 0.62 5.02-2.55L5.02-2.55L5.02-2.55Q1.20-5.72 1.20-12.43L1.20-12.43L1.20-12.90L11.96-12.90L11.96-12.48L11.96-12.48Q11.96-10.04 12.87-9.00L12.87-9.00L12.87-9.00Q13.78-7.96 15.65-7.96L15.65-7.96L15.65-7.96Q17.52-7.96 18.43-9.00L18.43-9.00L18.43-9.00Q19.34-10.04 19.34-12.48L19.34-12.48L19.34-35.78L30.84-35.78L30.84-12.43ZM51.38-28.08L51.38-28.08Q57.67-28.08 61.62-25.97L61.62-25.97L61.62-25.97Q65.57-23.87 65.57-19.14L65.57-19.14L65.57-8.42L65.57-8.42Q65.57-7.54 65.99-6.97L65.99-6.97L65.99-6.97Q66.40-6.40 67.24-6.40L67.24-6.40L69.11-6.40L69.11-0.42L69.11-0.42Q68.95-0.31 68.30-0.08L68.30-0.08L68.30-0.08Q67.65 0.16 66.46 0.39L66.46 0.39L66.46 0.39Q65.26 0.62 63.70 0.62L63.70 0.62L63.70 0.62Q60.68 0.62 58.73-0.29L58.73-0.29L58.73-0.29Q56.78-1.20 56.06-2.81L56.06-2.81L56.06-2.81Q54.08-1.25 51.64-0.31L51.64-0.31L51.64-0.31Q49.19 0.62 45.92 0.62L45.92 0.62L45.92 0.62Q36.24 0.62 36.24-7.07L36.24-7.07L36.24-7.07Q36.24-11.08 38.40-13.18L38.40-13.18L38.40-13.18Q40.56-15.29 44.62-16.07L44.62-16.07L44.62-16.07Q48.67-16.85 55.22-16.85L55.22-16.85L55.22-18.20L55.22-18.20Q55.22-19.81 54.11-20.64L54.11-20.64L54.11-20.64Q52.99-21.48 51.22-21.48L51.22-21.48L51.22-21.48Q49.61-21.48 48.44-20.90L48.44-20.90L48.44-20.90Q47.27-20.33 47.27-19.08L47.27-19.08L47.27-18.88L37.08-18.88L37.08-18.88Q37.02-19.14 37.02-19.60L37.02-19.60L37.02-19.60Q37.02-23.50 40.74-25.79L40.74-25.79L40.74-25.79Q44.46-28.08 51.38-28.08L51.38-28.08ZM55.22-11.96L55.22-11.96Q50.80-11.96 48.70-11.00L48.70-11.00L48.70-11.00Q46.59-10.04 46.59-8.42L46.59-8.42L46.59-8.42Q46.59-5.82 50.13-5.82L50.13-5.82L50.13-5.82Q52.16-5.82 53.69-6.92L53.69-6.92L53.69-6.92Q55.22-8.01 55.22-9.62L55.22-9.62L55.22-11.96ZM103.38-32.60L103.38-32.60Q103.38-29.43 101.79-27.72L101.79-27.72L101.79-27.72Q100.20-26.00 97.03-25.17L97.03-25.17L97.03-25.17Q98.54-24.02 99.40-22.49L99.40-22.49L99.40-22.49Q100.26-20.96 100.26-19.24L100.26-19.24L100.26-19.24Q100.26-14.87 96.95-12.64L96.95-12.64L96.95-12.64Q93.65-10.40 88.71-10.40L88.71-10.40L84.76-10.40L84.76-10.40Q81.48-10.40 81.48-8.89L81.48-8.89L81.48-8.89Q81.48-8.16 82.21-7.72L82.21-7.72L82.21-7.72Q82.94-7.28 84.76-7.28L84.76-7.28L94.12-7.28L94.12-7.28Q98.70-7.28 101.04-4.89L101.04-4.89L101.04-4.89Q103.38-2.50 103.38 1.51L103.38 1.51L103.38 1.51Q103.38 4.47 101.82 6.60L101.82 6.60L101.82 6.60Q100.26 8.74 97.60 9.83L97.60 9.83L97.60 9.83Q94.95 10.92 91.83 10.92L91.83 10.92L76.54 10.92L76.54 10.92Q74.67 10.92 73.09 10.04L73.09 10.04L73.09 10.04Q71.50 9.15 70.56 7.62L70.56 7.62L70.56 7.62Q69.63 6.08 69.63 4.21L69.63 4.21L69.63 4.21Q69.63 2.18 70.88 0.55L70.88 0.55L70.88 0.55Q72.12-1.09 74.00-1.92L74.00-1.92L74.00-1.92Q72.75-2.81 72.02-4.06L72.02-4.06L72.02-4.06Q71.29-5.30 71.29-6.76L71.29-6.76L71.29-6.76Q71.29-8.79 72.80-10.43L72.80-10.43L72.80-10.43Q74.31-12.06 76.54-12.64L76.54-12.64L76.54-12.64Q74.52-13.94 73.32-15.63L73.32-15.63L73.32-15.63Q72.12-17.32 72.12-19.19L72.12-19.19L72.12-19.19Q72.12-23.97 76.00-26.03L76.00-26.03L76.00-26.03Q79.87-28.08 86.27-28.08L86.27-28.08L86.27-28.08Q89.08-28.08 90.79-27.77L90.79-27.77L90.79-27.77Q93.34-29.38 94.09-30.71L94.09-30.71L94.09-30.71Q94.85-32.03 94.85-32.60L94.85-32.60L103.38-32.60ZM86.16-22.67L86.16-22.67Q84.45-22.67 83.36-21.79L83.36-21.79L83.36-21.79Q82.26-20.90 82.26-19.24L82.26-19.24L82.26-19.24Q82.26-17.52 83.28-16.67L83.28-16.67L83.28-16.67Q84.29-15.81 86.16-15.81L86.16-15.81L86.16-15.81Q88.04-15.81 89.10-16.67L89.10-16.67L89.10-16.67Q90.17-17.52 90.17-19.24L90.17-19.24L90.17-19.24Q90.17-20.96 89.10-21.81L89.10-21.81L89.10-21.81Q88.04-22.67 86.16-22.67L86.16-22.67ZM82.16 0L82.16 0Q80.96 0 80.21 0.65L80.21 0.65L80.21 0.65Q79.46 1.30 79.46 2.50L79.46 2.50L79.46 2.50Q79.46 3.69 80.24 4.42L80.24 4.42L80.24 4.42Q81.02 5.15 82.16 5.15L82.16 5.15L90.27 5.15L90.27 5.15Q91.42 5.15 92.22 4.45L92.22 4.45L92.22 4.45Q93.03 3.74 93.03 2.55L93.03 2.55L93.03 2.55Q93.03 1.35 92.25 0.68L92.25 0.68L92.25 0.68Q91.47 0 90.27 0L90.27 0L82.16 0ZM120.74-28.08L120.74-28.08Q127.04-28.08 130.99-25.97L130.99-25.97L130.99-25.97Q134.94-23.87 134.94-19.14L134.94-19.14L134.94-8.42L134.94-8.42Q134.94-7.54 135.36-6.97L135.36-6.97L135.36-6.97Q135.77-6.40 136.60-6.40L136.60-6.40L138.48-6.40L138.48-0.42L138.48-0.42Q138.32-0.31 137.67-0.08L137.67-0.08L137.67-0.08Q137.02 0.16 135.82 0.39L135.82 0.39L135.82 0.39Q134.63 0.62 133.07 0.62L133.07 0.62L133.07 0.62Q130.05 0.62 128.10-0.29L128.10-0.29L128.10-0.29Q126.15-1.20 125.42-2.81L125.42-2.81L125.42-2.81Q123.45-1.25 121.00-0.31L121.00-0.31L121.00-0.31Q118.56 0.62 115.28 0.62L115.28 0.62L115.28 0.62Q105.61 0.62 105.61-7.07L105.61-7.07L105.61-7.07Q105.61-11.08 107.77-13.18L107.77-13.18L107.77-13.18Q109.93-15.29 113.98-16.07L113.98-16.07L113.98-16.07Q118.04-16.85 124.59-16.85L124.59-16.85L124.59-18.20L124.59-18.20Q124.59-19.81 123.47-20.64L123.47-20.64L123.47-20.64Q122.36-21.48 120.59-21.48L120.59-21.48L120.59-21.48Q118.98-21.48 117.81-20.90L117.81-20.90L117.81-20.90Q116.64-20.33 116.64-19.08L116.64-19.08L116.64-18.88L106.44-18.88L106.44-18.88Q106.39-19.14 106.39-19.60L106.39-19.60L106.39-19.60Q106.39-23.50 110.11-25.79L110.11-25.79L110.11-25.79Q113.83-28.08 120.74-28.08L120.74-28.08ZM124.59-11.96L124.59-11.96Q120.17-11.96 118.07-11.00L118.07-11.00L118.07-11.00Q115.96-10.04 115.96-8.42L115.96-8.42L115.96-8.42Q115.96-5.82 119.50-5.82L119.50-5.82L119.50-5.82Q121.52-5.82 123.06-6.92L123.06-6.92L123.06-6.92Q124.59-8.01 124.59-9.62L124.59-9.62L124.59-11.96ZM170.25 0L161.82 0L160.94-3.90L160.94-3.90Q157.92 0.62 152.20 0.62L152.20 0.62L152.20 0.62Q146.64 0.62 143.62-3.02L143.62-3.02L143.62-3.02Q140.61-6.66 140.61-13.78L140.61-13.78L140.61-13.78Q140.61-20.85 143.62-24.47L143.62-24.47L143.62-24.47Q146.64-28.08 152.20-28.08L152.20-28.08L152.20-28.08Q156.94-28.08 159.90-24.91L159.90-24.91L159.90-37.70L170.25-37.70L170.25 0ZM155.43-20.44L155.43-20.44Q150.96-20.44 150.96-15.08L150.96-15.08L150.96-12.32L150.96-12.32Q150.96-7.02 155.43-7.02L155.43-7.02L155.43-7.02Q157.72-7.02 158.86-8.63L158.86-8.63L158.86-8.63Q160.00-10.24 160.00-12.84L160.00-12.84L160.00-14.56L160.00-14.56Q160.00-17.16 158.86-18.80L158.86-18.80L158.86-18.80Q157.72-20.44 155.43-20.44L155.43-20.44ZM190.74-28.08L190.74-28.08Q198.28-28.08 202.25-24.54L202.25-24.54L202.25-24.54Q206.23-21.01 206.23-13.73L206.23-13.73L206.23-11.96L185.64-11.96L185.64-11.96Q185.64-9.00 186.97-7.49L186.97-7.49L186.97-7.49Q188.29-5.98 191.15-5.98L191.15-5.98L191.15-5.98Q193.75-5.98 194.97-7.07L194.97-7.07L194.97-7.07Q196.20-8.16 196.20-9.98L196.20-9.98L206.23-9.98L206.23-9.98Q206.23-4.99 202.44-2.18L202.44-2.18L202.44-2.18Q198.64 0.62 191.36 0.62L191.36 0.62L191.36 0.62Q183.72 0.62 179.50-2.94L179.50-2.94L179.50-2.94Q175.29-6.50 175.29-13.73L175.29-13.73L175.29-13.73Q175.29-20.80 179.40-24.44L179.40-24.44L179.40-24.44Q183.51-28.08 190.74-28.08L190.74-28.08ZM191.15-21.48L191.15-21.48Q186.26-21.48 185.69-16.85L185.69-16.85L195.78-16.85L195.78-16.85Q195.78-18.98 194.56-20.23L194.56-20.23L194.56-20.23Q193.34-21.48 191.15-21.48L191.15-21.48ZM225.42-28.08L225.42-28.08Q232.96-28.08 236.94-24.54L236.94-24.54L236.94-24.54Q240.92-21.01 240.92-13.73L240.92-13.73L240.92-11.96L220.32-11.96L220.32-11.96Q220.32-9.00 221.65-7.49L221.65-7.49L221.65-7.49Q222.98-5.98 225.84-5.98L225.84-5.98L225.84-5.98Q228.44-5.98 229.66-7.07L229.66-7.07L229.66-7.07Q230.88-8.16 230.88-9.98L230.88-9.98L240.92-9.98L240.92-9.98Q240.92-4.99 237.12-2.18L237.12-2.18L237.12-2.18Q233.32 0.62 226.04 0.62L226.04 0.62L226.04 0.62Q218.40 0.62 214.19-2.94L214.19-2.94L214.19-2.94Q209.98-6.50 209.98-13.73L209.98-13.73L209.98-13.73Q209.98-20.80 214.08-24.44L214.08-24.44L214.08-24.44Q218.19-28.08 225.42-28.08L225.42-28.08ZM225.84-21.48L225.84-21.48Q220.95-21.48 220.38-16.85L220.38-16.85L230.46-16.85L230.46-16.85Q230.46-18.98 229.24-20.23L229.24-20.23L229.24-20.23Q228.02-21.48 225.84-21.48L225.84-21.48ZM258.96-28.08L258.96-28.08Q264.47-28.08 268.29-25.92L268.29-25.92L268.29-25.92Q272.12-23.76 272.12-19.24L272.12-19.24L262.50-19.24L262.50-19.24Q262.50-20.75 261.14-21.37L261.14-21.37L261.14-21.37Q260.21-21.89 258.80-21.89L258.80-21.89L258.80-21.89Q255.06-21.89 255.06-20.12L255.06-20.12L255.06-20.12Q255.06-19.14 256.36-18.72L256.36-18.72L256.36-18.72Q257.66-18.30 260.62-17.84L260.62-17.84L260.62-17.84Q264.26-17.32 266.71-16.61L266.71-16.61L266.71-16.61Q269.15-15.91 270.97-14.12L270.97-14.12L270.97-14.12Q272.79-12.32 272.79-9.10L272.79-9.10L272.79-9.10Q272.79-3.85 268.87-1.61L268.87-1.61L268.87-1.61Q264.94 0.62 258.60 0.62L258.60 0.62L258.60 0.62Q254.96 0.62 251.73-0.39L251.73-0.39L251.73-0.39Q248.51-1.40 246.48-3.54L246.48-3.54L246.48-3.54Q244.45-5.67 244.45-8.94L244.45-8.94L254.07-8.94L254.07-8.74L254.07-8.74Q254.12-6.97 255.55-6.27L255.55-6.27L255.55-6.27Q256.98-5.56 258.60-5.56L258.60-5.56L258.60-5.56Q262.91-5.56 262.91-7.59L262.91-7.59L262.91-7.59Q262.91-8.63 261.56-9.10L261.56-9.10L261.56-9.10Q260.21-9.57 257.14-10.09L257.14-10.09L257.14-10.09Q253.45-10.71 251.08-11.44L251.08-11.44L251.08-11.44Q248.72-12.17 246.95-13.91L246.95-13.91L246.95-13.91Q245.18-15.65 245.18-18.77L245.18-18.77L245.18-18.77Q245.18-23.82 249.00-25.95L249.00-25.95L249.00-25.95Q252.82-28.08 258.96-28.08L258.96-28.08ZM288.03-24.60L288.03-24.60Q289.69-26.26 291.93-27.17L291.93-27.17L291.93-27.17Q294.16-28.08 296.61-28.08L296.61-28.08L296.61-28.08Q301.39-28.08 303.78-25.43L303.78-25.43L303.78-25.43Q306.18-22.78 306.18-17.78L306.18-17.78L306.18 0L295.83 0L295.83-16.54L295.83-16.54Q295.83-18.30 294.92-19.37L294.92-19.37L294.92-19.37Q294.01-20.44 292.34-20.44L292.34-20.44L292.34-20.44Q290.42-20.44 289.22-19.19L289.22-19.19L289.22-19.19Q288.03-17.94 288.03-16.12L288.03-16.12L288.03 0L277.68 0L277.68-37.70L288.03-37.70L288.03-24.60ZM372.53 0L361.14 0L361.14-12.90L361.14-12.90Q361.14-15.29 361.32-17.81L361.32-17.81L361.32-17.81Q361.50-20.33 361.71-22.05L361.71-22.05L361.71-22.05Q361.92-23.76 361.97-24.23L361.97-24.23L361.76-24.23L355.16 0L346.16 0L339.51-24.18L339.30-24.18L339.30-24.18Q339.35-23.71 339.59-22.02L339.59-22.02L339.59-22.02Q339.82-20.33 340.03-17.81L340.03-17.81L340.03-17.81Q340.24-15.29 340.24-12.90L340.24-12.90L340.24 0L329.68 0L329.68-35.78L345.90-35.78L351.31-15.13L351.52-15.13L356.88-35.78L372.53-35.78L372.53 0ZM407.16 0L398.68 0L398.01-4.16L398.01-4.16Q396.40-1.92 393.77-0.65L393.77-0.65L393.77-0.65Q391.14 0.62 388.23 0.62L388.23 0.62L388.23 0.62Q383.45 0.62 381.06-2.03L381.06-2.03L381.06-2.03Q378.66-4.68 378.66-9.67L378.66-9.67L378.66-27.46L389.01-27.46L389.01-10.92L389.01-10.92Q389.01-9.15 389.92-8.09L389.92-8.09L389.92-8.09Q390.83-7.02 392.50-7.02L392.50-7.02L392.50-7.02Q394.42-7.02 395.62-8.27L395.62-8.27L395.62-8.27Q396.81-9.52 396.81-11.34L396.81-11.34L396.81-27.46L407.16-27.46L407.16 0ZM426.50-28.08L426.50-28.08Q432.02-28.08 435.84-25.92L435.84-25.92L435.84-25.92Q439.66-23.76 439.66-19.24L439.66-19.24L430.04-19.24L430.04-19.24Q430.04-20.75 428.69-21.37L428.69-21.37L428.69-21.37Q427.75-21.89 426.35-21.89L426.35-21.89L426.35-21.89Q422.60-21.89 422.60-20.12L422.60-20.12L422.60-20.12Q422.60-19.14 423.90-18.72L423.90-18.72L423.90-18.72Q425.20-18.30 428.17-17.84L428.17-17.84L428.17-17.84Q431.81-17.32 434.25-16.61L434.25-16.61L434.25-16.61Q436.70-15.91 438.52-14.12L438.52-14.12L438.52-14.12Q440.34-12.32 440.34-9.10L440.34-9.10L440.34-9.10Q440.34-3.85 436.41-1.61L436.41-1.61L436.41-1.61Q432.48 0.62 426.14 0.62L426.14 0.62L426.14 0.62Q422.50 0.62 419.28-0.39L419.28-0.39L419.28-0.39Q416.05-1.40 414.02-3.54L414.02-3.54L414.02-3.54Q412.00-5.67 412.00-8.94L412.00-8.94L421.62-8.94L421.62-8.74L421.62-8.74Q421.67-6.97 423.10-6.27L423.10-6.27L423.10-6.27Q424.53-5.56 426.14-5.56L426.14-5.56L426.14-5.56Q430.46-5.56 430.46-7.59L430.46-7.59L430.46-7.59Q430.46-8.63 429.10-9.10L429.10-9.10L429.10-9.10Q427.75-9.57 424.68-10.09L424.68-10.09L424.68-10.09Q420.99-10.71 418.63-11.44L418.63-11.44L418.63-11.44Q416.26-12.17 414.49-13.91L414.49-13.91L414.49-13.91Q412.72-15.65 412.72-18.77L412.72-18.77L412.72-18.77Q412.72-23.82 416.55-25.95L416.55-25.95L416.55-25.95Q420.37-28.08 426.50-28.08L426.50-28.08ZM458.80-28.08L458.80-28.08Q465.09-28.08 469.04-25.97L469.04-25.97L469.04-25.97Q472.99-23.87 472.99-19.14L472.99-19.14L472.99-8.42L472.99-8.42Q472.99-7.54 473.41-6.97L473.41-6.97L473.41-6.97Q473.82-6.40 474.66-6.40L474.66-6.40L476.53-6.40L476.53-0.42L476.53-0.42Q476.37-0.31 475.72-0.08L475.72-0.08L475.72-0.08Q475.07 0.16 473.88 0.39L473.88 0.39L473.88 0.39Q472.68 0.62 471.12 0.62L471.12 0.62L471.12 0.62Q468.10 0.62 466.15-0.29L466.15-0.29L466.15-0.29Q464.20-1.20 463.48-2.81L463.48-2.81L463.48-2.81Q461.50-1.25 459.06-0.31L459.06-0.31L459.06-0.31Q456.61 0.62 453.34 0.62L453.34 0.62L453.34 0.62Q443.66 0.62 443.66-7.07L443.66-7.07L443.66-7.07Q443.66-11.08 445.82-13.18L445.82-13.18L445.82-13.18Q447.98-15.29 452.04-16.07L452.04-16.07L452.04-16.07Q456.09-16.85 462.64-16.85L462.64-16.85L462.64-18.20L462.64-18.20Q462.64-19.81 461.53-20.64L461.53-20.64L461.53-20.64Q460.41-21.48 458.64-21.48L458.64-21.48L458.64-21.48Q457.03-21.48 455.86-20.90L455.86-20.90L455.86-20.90Q454.69-20.33 454.69-19.08L454.69-19.08L454.69-18.88L444.50-18.88L444.50-18.88Q444.44-19.14 444.44-19.60L444.44-19.60L444.44-19.60Q444.44-23.50 448.16-25.79L448.16-25.79L448.16-25.79Q451.88-28.08 458.80-28.08L458.80-28.08ZM462.64-11.96L462.64-11.96Q458.22-11.96 456.12-11.00L456.12-11.00L456.12-11.00Q454.01-10.04 454.01-8.42L454.01-8.42L454.01-8.42Q454.01-5.82 457.55-5.82L457.55-5.82L457.55-5.82Q459.58-5.82 461.11-6.92L461.11-6.92L461.11-6.92Q462.64-8.01 462.64-9.62L462.64-9.62L462.64-11.96ZM490.62 0L480.27 0L480.27-37.70L490.62-37.70L490.62 0ZM507.94-30.68L497.59-30.68L497.59-37.70L507.94-37.70L507.94-30.68ZM507.94 0L497.59 0L497.59-27.46L507.94-27.46L507.94 0Z" fill="#7510f7"></path></g></g><style>text {
  font-size: 64px;
  font-family: Arial Black;
  dominant-baseline: central;
  text-anchor: middle;
}</style></svg>
