<svg width="421" height="188" viewBox="0 0 421 188" fill="none" xmlns="http://www.w3.org/2000/svg">
<path d="M62.428 187.304C50.3133 187.304 38.828 185.967 27.972 183.292C17.116 180.46 8.06933 176.605 0.832 171.728V130.192H48.032V132.552C48.032 141.048 52.1227 145.296 60.304 145.296C64.552 145.296 67.6987 144.195 69.744 141.992C71.9467 139.632 73.048 136.013 73.048 131.136V39.096H51.808V0.391987H150.928V39.096H139.128V118.392C139.128 141.52 132.363 158.827 118.832 170.312C105.301 181.64 86.5 187.304 62.428 187.304ZM420.208 39.096H408.408V145.296H420.208V184H331V145.296H342.328V62.696L302.208 184H267.28L225.98 63.876V145.296H237.308V184H159.9V145.296H171.7V39.096H159.9V0.391987H267.988L292.532 74.024L316.132 0.391987H420.208V39.096Z" fill="rgb(117,16,247)"/>
</svg>
