<svg width="450" height="335" viewBox="0 0 450 335" fill="none" xmlns="http://www.w3.org/2000/svg">
<path d="M15.1748 292.025C15.7917 295.85 16.902 299.736 18.5059 303.684C20.2331 307.632 22.5155 311.21 25.353 314.417C28.1906 317.749 31.7067 320.463 35.9014 322.56C40.2194 324.657 45.2777 325.706 51.0762 325.706C59.959 325.706 67.3613 322.992 73.2832 317.563C79.3285 312.135 84.2633 304.733 88.0879 295.356C92.0358 285.98 95.1201 275.062 97.3408 262.601C99.5615 250.017 101.35 236.569 102.708 222.258C98.1427 223.862 93.3312 225.158 88.2729 226.145C83.2147 227.132 77.9097 227.625 72.3579 227.625C61.9946 227.625 52.3716 226.206 43.4888 223.369C34.606 220.531 26.9569 216.336 20.5415 210.785C14.1261 205.233 9.06787 198.447 5.3667 190.428C1.7889 182.286 0 172.971 0 162.484C0 150.641 1.91227 139.969 5.73682 130.469C9.56136 120.846 14.6196 112.21 20.9116 104.561C27.327 96.7886 34.6676 89.9414 42.9336 84.0195C51.3229 77.9743 60.0207 72.5459 69.0269 67.7344C78.033 62.9229 87.0392 58.6665 96.0454 54.9653C105.175 51.2642 113.688 47.8097 121.583 44.6021C125.408 33.3752 130.343 24.4307 136.388 17.7686C142.433 11.1064 150.268 7.77539 159.891 7.77539C160.878 7.77539 162.05 7.89876 163.407 8.14551C164.764 8.39225 166.059 8.94743 167.293 9.81104C168.65 10.5513 169.76 11.7233 170.624 13.3271C171.611 14.8076 172.104 16.7816 172.104 19.249C172.104 23.3203 170.932 26.9598 168.588 30.1675C166.244 33.3752 163.037 36.3361 158.965 39.0503C154.894 41.6411 150.083 44.1086 144.531 46.4526C138.979 48.7967 132.995 51.0791 126.58 53.2998C125.1 63.4163 123.989 74.7049 123.249 87.1655C122.509 99.6261 121.83 112.704 121.213 126.398C120.72 139.969 120.103 153.91 119.363 168.221C118.623 182.532 117.636 196.535 116.402 210.229C124.174 206.775 130.651 202.765 135.833 198.201C141.015 193.636 145.764 189.441 150.083 185.617L152.673 188.208C151.193 189.688 149.281 191.539 146.937 193.759C144.716 195.98 142.002 198.386 138.794 200.977C135.71 203.567 132.194 206.282 128.246 209.119C124.421 211.833 120.226 214.362 115.662 216.707C113.934 232.745 111.529 247.92 108.444 262.231C105.483 276.419 101.35 288.879 96.0454 299.613C90.8638 310.346 84.325 318.859 76.4292 325.151C68.5334 331.443 58.8486 334.589 47.375 334.589C42.07 334.589 36.765 333.664 31.46 331.813C26.1549 329.962 21.4051 327.31 17.2104 323.855C13.0158 320.524 9.56136 316.391 6.84717 311.457C4.25635 306.645 2.96094 301.217 2.96094 295.171C2.96094 293.691 3.33105 292.334 4.07129 291.1C4.81152 289.99 5.73682 289.003 6.84717 288.139C8.08089 287.399 9.3763 286.782 10.7334 286.289C12.2139 285.795 13.6943 285.548 15.1748 285.548C16.1618 285.548 16.6553 286.104 16.6553 287.214C16.6553 287.831 16.4085 288.509 15.915 289.25C15.4215 290.113 15.1748 291.038 15.1748 292.025ZM76.9844 217.817C86.8542 217.817 95.6753 216.768 103.448 214.671C104.558 201.223 105.422 187.344 106.039 173.033C106.779 158.722 107.581 144.657 108.444 130.839C109.431 117.022 110.665 103.759 112.146 91.0518C113.626 78.221 115.662 66.5007 118.252 55.8906C110.48 58.4814 102.461 61.2573 94.1948 64.2183C85.9289 67.0558 77.848 70.3252 69.9521 74.0264C62.0563 77.6042 54.5306 81.7371 47.375 86.4253C40.3428 91.1134 34.1742 96.5418 28.8691 102.71C23.5641 108.879 19.3695 115.973 16.2852 123.992C13.2008 131.888 11.6587 140.894 11.6587 151.011C11.6587 160.634 12.6457 168.961 14.6196 175.994C16.5936 183.026 19.2461 189.009 22.5771 193.944C26.0316 198.879 29.9178 202.951 34.2358 206.158C38.6772 209.243 43.3037 211.648 48.1152 213.375C53.0501 215.103 57.985 216.275 62.9199 216.892C67.8548 217.508 72.543 217.817 76.9844 217.817ZM155.819 16.4731C152.982 16.4731 150.206 16.9666 147.492 17.9536C144.778 18.8172 142.187 20.236 139.719 22.21C137.375 24.1839 135.216 26.7747 133.242 29.9824C131.392 33.0667 129.911 36.8913 128.801 41.4561C133.366 39.6055 137.56 37.8166 141.385 36.0894C145.333 34.3621 148.664 32.6349 151.378 30.9077C154.215 29.1805 156.375 27.4533 157.855 25.7261C159.459 23.9989 160.261 22.21 160.261 20.3594C160.261 19.6191 159.891 18.8172 159.15 17.9536C158.41 16.9666 157.3 16.4731 155.819 16.4731ZM449.137 245.761C448.767 247.118 447.903 249.339 446.546 252.423C445.189 255.384 443.462 258.777 441.365 262.601C439.391 266.426 437.108 270.435 434.518 274.63C431.927 278.701 429.213 282.402 426.375 285.733C423.537 289.188 420.576 291.964 417.492 294.061C414.408 296.282 411.447 297.392 408.609 297.392C404.291 297.392 400.59 295.418 397.506 291.47C394.545 287.522 392.139 282.587 390.289 276.666C388.438 270.744 387.081 264.267 386.217 257.234C385.477 250.202 385.107 243.602 385.107 237.433C385.107 218.31 386.341 199.434 388.808 180.805C391.276 162.053 394.483 143.485 398.431 125.103C402.502 106.72 407.067 88.5226 412.125 70.5103C417.307 52.3745 422.489 34.3621 427.67 16.4731C425.08 16.4731 421.44 19.5575 416.752 25.7261C412.187 31.8947 406.944 40.0373 401.022 50.1538C395.1 60.2703 388.685 71.8674 381.776 84.9448C374.867 98.0223 367.896 111.47 360.864 125.288C353.832 138.982 346.861 152.553 339.953 166C333.044 179.325 326.628 191.415 320.707 202.272C320.09 203.382 319.288 204.801 318.301 206.528C317.314 208.132 316.142 209.674 314.785 211.155C313.551 212.635 312.132 213.931 310.528 215.041C308.924 216.151 307.259 216.707 305.532 216.707C303.681 216.707 302.386 216.09 301.646 214.856C300.905 213.622 300.412 211.957 300.165 209.859C299.548 202.58 298.993 194.376 298.5 185.247C298.006 175.994 297.451 166.617 296.834 157.118C296.34 147.495 295.785 138.057 295.168 128.804C294.552 119.427 293.873 110.915 293.133 103.266C292.393 95.4932 291.529 88.9544 290.542 83.6494C289.555 78.221 288.383 74.6432 287.026 72.916C287.026 73.903 287.088 75.0133 287.211 76.2471C287.211 77.234 287.211 78.4678 287.211 79.9482C287.334 81.4287 287.396 83.0326 287.396 84.7598C287.396 90.9284 286.779 98.5158 285.545 107.522C284.312 116.528 282.461 126.336 279.994 136.946C277.526 147.433 274.442 158.413 270.741 169.887C267.163 181.237 262.968 192.402 258.157 203.382C253.345 214.362 247.979 224.849 242.057 234.842C236.135 244.712 229.596 253.41 222.44 260.936C215.285 268.338 207.574 274.198 199.308 278.516C191.166 282.958 182.468 285.178 173.215 285.178C166.923 285.178 161.68 283.944 157.485 281.477C153.29 279.133 149.897 276.295 147.307 272.964C144.716 269.51 142.742 265.994 141.385 262.416C140.028 258.715 139.041 255.692 138.424 253.348L140.274 252.608C141.755 256.186 143.791 259.147 146.381 261.491C148.972 263.835 151.81 265.685 154.894 267.042C158.102 268.4 161.433 269.387 164.887 270.003C168.465 270.497 172.043 270.744 175.621 270.744C183.763 270.744 191.536 268.893 198.938 265.192C206.34 261.367 213.249 256.247 219.665 249.832C226.203 243.293 232.249 235.706 237.8 227.07C243.475 218.31 248.595 208.996 253.16 199.126C257.848 189.256 261.92 179.078 265.374 168.591C268.952 157.981 271.913 147.556 274.257 137.316C276.724 127.076 278.513 117.268 279.624 107.892C280.857 98.5158 281.412 90.0648 281.289 82.5391C281.289 80.8118 281.166 78.8379 280.919 76.6172C280.672 74.3965 280.425 72.2992 280.179 70.3252C280.302 69.8317 280.549 69.1532 280.919 68.2896C281.412 67.4259 282.029 66.5623 282.77 65.6987C283.51 64.8351 284.373 64.1566 285.36 63.6631C286.471 63.0462 287.766 62.7378 289.247 62.7378C292.701 62.7378 295.539 65.2052 297.759 70.1401C300.103 75.075 301.954 81.5521 303.311 89.5713C304.668 97.5905 305.717 106.72 306.457 116.96C307.197 127.076 307.814 137.378 308.308 147.865C308.801 158.351 309.233 168.53 309.603 178.399C309.973 188.269 310.528 196.844 311.269 204.123C312.009 204.123 313.428 202.21 315.525 198.386C317.746 194.561 320.521 189.441 323.853 183.026C327.184 176.487 331.008 168.9 335.326 160.264C339.644 151.504 344.209 142.251 349.021 132.505C353.955 122.758 359.075 112.704 364.38 102.34C369.809 91.9771 375.175 81.9222 380.48 72.1758C385.909 62.4294 391.276 53.2381 396.581 44.6021C401.886 35.8426 406.944 28.2552 411.755 21.8398C416.567 15.3011 421.07 10.1195 425.265 6.29492C429.459 2.47038 433.16 0.558105 436.368 0.558105C437.355 1.17497 438.342 1.9152 439.329 2.77881C440.316 3.51904 440.81 4.44434 440.81 5.55469C436.245 22.21 431.433 39.9139 426.375 58.6665C421.317 77.2957 416.629 96.4185 412.311 116.035C408.116 135.651 404.6 155.452 401.762 175.438C399.048 195.425 397.691 215.103 397.691 234.472C397.691 239.16 398.061 244.342 398.801 250.017C399.542 255.569 400.652 260.75 402.132 265.562C403.613 270.374 405.402 274.383 407.499 277.591C409.596 280.922 412.002 282.587 414.716 282.587C417.06 282.587 419.836 281.107 423.044 278.146C426.252 275.185 429.459 271.731 432.667 267.783C435.875 263.711 438.774 259.578 441.365 255.384C444.079 251.066 446.053 247.611 447.287 245.021L449.137 245.761Z" fill="#543CE2"/>
</svg>
